<svg width="200" height="45" viewBox="0 0 200 45" fill="none" xmlns="http://www.w3.org/2000/svg">
<g id="logo_v1.svg" clip-path="url(#clip0_1601_4530)">
<g id="Group 13">
<g id="Group 9">
<g id="Group 8">
<path id="Path 36" d="M22.3106 36.2694H22.2931V40.4477C18.0294 40.4494 13.9025 38.9428 10.6427 36.1945L7.89453 39.3379C10.2145 41.3011 12.9109 42.7697 15.8186 43.6537C18.7263 44.5377 21.7839 44.8184 24.8039 44.4788C27.824 44.1391 30.7428 43.1861 33.3815 41.6783C36.0201 40.1705 38.323 38.1396 40.1489 35.7101L33.4831 30.6763C32.1845 32.4137 30.4983 33.824 28.5587 34.795C26.6191 35.7659 24.4797 36.2708 22.3106 36.2694Z" fill="black"/>
<path id="Path 37" d="M7.98697 11.1863L11.3245 13.7038C12.6457 12.0158 14.3379 10.6549 16.2699 9.72653C18.202 8.79814 20.3219 8.32724 22.4653 8.35034C24.6087 8.37345 26.7179 8.88994 28.6295 9.85975C30.5411 10.8296 32.2036 12.2267 33.4881 13.9427L40.1505 8.90881C37.0144 4.73737 32.5154 1.797 27.4359 0.598944C22.3564 -0.599109 17.0176 0.0209379 12.3479 2.35127C7.67823 4.68161 3.97292 8.57484 1.87626 13.354C-0.220401 18.1332 -0.57579 23.4961 0.871882 28.5102L4.87196 27.3074C4.08487 24.5651 3.95661 21.6755 4.49763 18.8742C5.03865 16.0729 6.23365 13.4389 7.98533 11.1868L7.98697 11.1863Z" fill="#999999"/>
<path id="Path 38" d="M13.3928 33.0496C15.8901 35.132 19.0391 36.2716 22.2906 36.2696V32.0973C20.4501 32.0949 18.6476 31.5734 17.0901 30.5928C15.5325 29.6122 14.2831 28.2123 13.4853 26.5537C12.6874 24.8951 12.3735 23.0451 12.5796 21.2162C12.7856 19.3872 13.5033 17.6535 14.6502 16.214L11.322 13.7036C9.96754 15.4322 9.03981 17.4559 8.61408 19.6103C8.18835 21.7647 8.27662 23.9891 8.87172 26.1029L4.87109 27.3056C5.86695 30.7763 7.87568 33.871 10.6402 36.1936L13.3895 33.0486L13.3928 33.0496Z" fill="#FFD71D"/>
<path id="Path 39" d="M22.2921 36.2698C19.0406 36.2717 15.8915 35.1321 13.3943 33.0498H13.3899L10.6406 36.1949C13.9004 38.9432 18.0273 40.4498 22.291 40.4481L22.2921 36.2698Z" fill="#999999"/>
<path id="Path 40" d="M8.35291 22.311C8.34919 19.1894 9.39637 16.1575 11.3258 13.7035L7.98827 11.186C6.2366 13.4381 5.04159 16.0721 4.50057 18.8734C3.95955 21.6747 4.08781 24.5643 4.87491 27.3066L8.87554 26.1039C8.5279 24.8697 8.35204 23.5933 8.35291 22.311Z" fill="#191A1A"/>
</g>
<path id="Ellipse 3" d="M27.5886 23.5604C28.2791 20.6355 26.4677 17.7045 23.5428 17.014C20.6178 16.3235 17.6869 18.1349 16.9964 21.0598C16.3059 23.9848 18.1172 26.9157 21.0422 27.6062C23.9672 28.2968 26.8981 26.4854 27.5886 23.5604Z" fill="black"/>
</g>
<g id="Group 11">
<g id="Group 10">
<path id="Path 41" d="M61.3137 13.6834H43.1689C43.0985 13.6723 43.0265 13.6776 42.9585 13.699C42.8906 13.7203 42.8284 13.7571 42.777 13.8064C42.7256 13.8557 42.6863 13.9163 42.6621 13.9833C42.638 14.0503 42.6296 14.122 42.6378 14.1928V16.469C42.6272 16.5415 42.6336 16.6154 42.6565 16.6849C42.6793 16.7544 42.718 16.8177 42.7695 16.8697C42.821 16.9218 42.8839 16.9611 42.9532 16.9847C43.0225 17.0082 43.0963 17.0154 43.1689 17.0056H50.4637V29.4322C50.4541 29.5018 50.4608 29.5727 50.4834 29.6393C50.506 29.7059 50.5437 29.7663 50.5937 29.8158C50.6436 29.8653 50.7044 29.9025 50.7712 29.9244C50.838 29.9463 50.909 29.9524 50.9785 29.9422H53.5095C53.5787 29.9519 53.6493 29.9455 53.7156 29.9233C53.7819 29.9011 53.8421 29.8638 53.8915 29.8143C53.9409 29.7649 53.9782 29.7046 54.0003 29.6383C54.0224 29.5719 54.0288 29.5014 54.0189 29.4322V17.0056H61.3137C61.3866 17.016 61.4609 17.0093 61.5308 16.986C61.6006 16.9627 61.6641 16.9235 61.7161 16.8714C61.7682 16.8194 61.8074 16.7559 61.8307 16.6861C61.854 16.6162 61.8607 16.5419 61.8502 16.469V14.1928C61.8502 13.8557 61.6714 13.6834 61.3137 13.6834Z" fill="black"/>
<path id="Path 42" d="M80.8027 17.1903H78.5265C78.185 17.1903 78.017 17.3692 78.017 17.7269V24.4417C78.0249 24.8548 77.9868 25.2674 77.9032 25.672C77.8413 25.9638 77.6986 26.2324 77.4913 26.447C77.2763 26.6558 77.0083 26.8018 76.7163 26.8692C76.3041 26.9637 75.8817 27.0056 75.459 26.9938H69.492C69.0782 27.0067 68.6645 26.9648 68.2617 26.8692C67.9843 26.8045 67.733 26.6573 67.5409 26.447C67.3549 26.2257 67.2331 25.9576 67.1886 25.672C67.1217 25.2654 67.0909 24.8537 67.0965 24.4417V17.7269C67.0965 17.3692 66.9231 17.1903 66.5871 17.1903H64.3108C64.238 17.1799 64.1636 17.1866 64.0938 17.2099C64.024 17.2332 63.9605 17.2724 63.9084 17.3244C63.8564 17.3765 63.8171 17.44 63.7939 17.5098C63.7706 17.5797 63.7639 17.654 63.7743 17.7269V25.2547C63.7584 25.9801 63.8535 26.7036 64.0561 27.4003C64.2191 27.9639 64.5363 28.4707 64.972 28.8636C65.4599 29.2754 66.0431 29.5585 66.6684 29.6874C67.5333 29.8754 68.4174 29.9609 69.3023 29.9421H75.7841C76.6672 29.9598 77.5494 29.8743 78.4126 29.6874C79.0412 29.5585 79.6278 29.2754 80.1198 28.8636C80.5537 28.4692 80.8706 27.9629 81.0357 27.4003C81.2357 26.7031 81.3307 25.9799 81.3175 25.2547V17.7269C81.3175 17.3692 81.1441 17.1903 80.8027 17.1903Z" fill="black"/>
<path id="Path 43" d="M96.1595 17.1903H89.6506C88.7649 17.1733 87.8804 17.2643 87.0167 17.4613C86.3924 17.5993 85.8106 17.8855 85.3203 18.2959C84.8847 18.6898 84.5659 19.1961 84.399 19.7592C84.201 20.4569 84.1079 21.1802 84.1226 21.9054V29.4327C84.1226 29.7746 84.3015 29.9426 84.6537 29.9426H86.9354C87.0047 29.9528 87.0754 29.9465 87.1418 29.9245C87.2083 29.9024 87.2687 29.8651 87.3182 29.8156C87.3677 29.7661 87.4049 29.7056 87.4269 29.6391C87.4489 29.5726 87.455 29.5019 87.4448 29.4327V22.5335C87.4383 22.1241 87.4764 21.7152 87.5586 21.3141C87.6207 21.0177 87.7632 20.7441 87.9705 20.5234C88.1875 20.3183 88.4549 20.1743 88.7455 20.1061C89.1492 20.0155 89.5622 19.9737 89.9758 19.9814H96.1595C96.2166 19.9891 96.2747 19.9834 96.3292 19.9648C96.3837 19.9461 96.4332 19.9151 96.4736 19.8741C96.5141 19.8331 96.5445 19.7833 96.5624 19.7286C96.5803 19.6738 96.5853 19.6157 96.5769 19.5587V17.6131C96.5853 17.5561 96.5803 17.4979 96.5624 17.4432C96.5445 17.3884 96.5141 17.3386 96.4736 17.2976C96.4332 17.2566 96.3837 17.2256 96.3292 17.207C96.2747 17.1884 96.2166 17.1827 96.1595 17.1903Z" fill="black"/>
<path id="Path 44" d="M115.652 19.759C115.485 19.1959 115.166 18.6896 114.73 18.2957C114.238 17.8822 113.652 17.5956 113.023 17.4611C112.163 17.2649 111.282 17.1739 110.4 17.1901H101.685V13.0333C101.696 12.964 101.69 12.8933 101.668 12.8269C101.646 12.7604 101.608 12.7 101.559 12.6505C101.509 12.601 101.449 12.5637 101.382 12.5417C101.316 12.5198 101.245 12.5136 101.176 12.5239H98.8998C98.5475 12.5239 98.3687 12.6919 98.3687 13.0333V25.2545C98.354 25.9794 98.4471 26.7026 98.6451 27.4001C98.8102 27.9627 99.1271 28.469 99.561 28.8634C100.05 29.2741 100.632 29.5572 101.257 29.6872C102.124 29.8755 103.01 29.961 103.897 29.9419H110.4C111.282 29.9599 112.162 29.8744 113.023 29.6872C113.653 29.5606 114.24 29.2773 114.73 28.8634C115.166 28.4694 115.485 27.9632 115.652 27.4001C115.85 26.7026 115.943 25.9794 115.928 25.2545V21.9052C115.943 21.18 115.85 20.4567 115.652 19.759ZM112.628 24.6041C112.636 25.0172 112.597 25.4298 112.514 25.8344C112.456 26.1266 112.315 26.3957 112.107 26.6094C111.889 26.8171 111.62 26.963 111.327 27.0321C110.916 27.1237 110.496 27.1655 110.075 27.1568H104.222C103.808 27.1645 103.395 27.1226 102.992 27.0321C102.698 26.9643 102.428 26.8182 102.211 26.6094C102.004 26.3957 101.863 26.1266 101.805 25.8344C101.719 25.4301 101.679 25.0174 101.685 24.6041V19.9801H110.075C110.496 19.9714 110.916 20.0132 111.327 20.1048C111.619 20.1743 111.888 20.318 112.107 20.5221C112.315 20.7419 112.456 21.0161 112.514 21.3128C112.596 21.7139 112.634 22.1228 112.628 22.5322V24.6041Z" fill="black"/>
<path id="Path 45" d="M135.812 19.759C135.647 19.1963 135.33 18.69 134.896 18.2957C134.403 17.8832 133.817 17.5967 133.189 17.4611C132.327 17.2649 131.444 17.1739 130.56 17.1901H123.992C123.104 17.1727 122.218 17.2637 121.352 17.4611C120.728 17.599 120.146 17.8853 119.656 18.2957C119.222 18.69 118.905 19.1963 118.74 19.759C118.54 20.4564 118.445 21.1797 118.458 21.9051V25.2544C118.445 25.9797 118.54 26.7028 118.74 27.4001C118.905 27.9627 119.222 28.469 119.656 28.8634C120.145 29.2741 120.727 29.5571 121.352 29.6871C122.219 29.8754 123.105 29.9609 123.992 29.9419H130.56C131.443 29.9598 132.325 29.8743 133.189 29.6871C133.818 29.5594 134.405 29.2762 134.896 28.8634C135.33 28.469 135.647 27.9627 135.812 27.4001C136.012 26.7028 136.107 25.9797 136.094 25.2544V21.9051C136.107 21.1797 136.012 20.4564 135.812 19.759ZM132.793 24.6745C132.801 25.0876 132.763 25.5002 132.679 25.9048C132.62 26.1975 132.477 26.4666 132.267 26.6798C132.053 26.8888 131.785 27.0334 131.492 27.0971C131.08 27.1935 130.658 27.2372 130.235 27.2272H124.317C123.903 27.2364 123.489 27.1927 123.087 27.0971C122.792 27.0321 122.52 26.8878 122.301 26.6798C122.097 26.4642 121.958 26.1957 121.9 25.9048C121.811 25.5009 121.771 25.0879 121.78 24.6745V22.4633C121.772 22.0572 121.812 21.6515 121.9 21.2548C121.96 20.9616 122.099 20.6901 122.301 20.4689C122.517 20.257 122.79 20.1121 123.087 20.0516C123.49 19.9629 123.903 19.9229 124.317 19.9324H130.235C130.657 19.9222 131.079 19.9622 131.492 20.0516C131.786 20.1109 132.056 20.2561 132.267 20.4689C132.475 20.6878 132.617 20.9598 132.679 21.2548C132.762 21.6521 132.8 22.0575 132.793 22.4633V24.6745Z" fill="black"/>
<path id="Path 46" d="M155.143 21.335C154.73 20.9675 154.248 20.6869 153.725 20.5099C153.202 20.333 152.648 20.2634 152.097 20.3053H138.726C138.844 20.9906 139.165 21.6248 139.647 22.1257C140.058 22.4943 140.539 22.7761 141.062 22.9541C141.584 23.132 142.137 23.2026 142.688 23.1614H151.397C152.204 23.1614 152.605 23.595 152.605 24.4621V25.416C152.625 25.7545 152.527 26.0894 152.329 26.3644C152.208 26.493 152.059 26.5918 151.894 26.653C151.728 26.7141 151.551 26.7359 151.375 26.7167H139.181C138.823 26.7167 138.645 26.8847 138.645 27.2261V29.4313C138.645 29.7733 138.823 29.9413 139.181 29.9413H152.047C153.456 29.9413 154.495 29.5927 155.163 28.8954C155.502 28.5275 155.764 28.0963 155.936 27.6265C156.107 27.1568 156.183 26.6579 156.161 26.1585V24.2995C156.196 23.7626 156.124 23.2241 155.949 22.7152C155.774 22.2063 155.5 21.7372 155.143 21.335Z" fill="black"/>
<path id="Path 47" d="M176.492 13.6837H158.346C157.988 13.6837 157.809 13.8571 157.809 14.1931V16.3772C157.799 16.4501 157.806 16.5244 157.829 16.5943C157.852 16.6641 157.892 16.7276 157.944 16.7796C157.996 16.8317 158.059 16.8709 158.129 16.8942C158.199 16.9175 158.273 16.9242 158.346 16.9137H165.641V29.433C165.631 29.5022 165.637 29.5728 165.659 29.6391C165.682 29.7055 165.719 29.7657 165.768 29.8152C165.818 29.8647 165.878 29.902 165.944 29.9241C166.01 29.9463 166.081 29.9528 166.15 29.943H168.681C168.751 29.9533 168.822 29.9472 168.889 29.9252C168.955 29.9033 169.016 29.8661 169.066 29.8167C169.116 29.7672 169.154 29.7068 169.176 29.6402C169.199 29.5736 169.206 29.5027 169.196 29.433V16.9137H176.491C176.563 16.9236 176.637 16.9164 176.706 16.8929C176.776 16.8693 176.839 16.8299 176.89 16.7779C176.942 16.7259 176.98 16.6626 177.003 16.5931C177.026 16.5235 177.033 16.4496 177.022 16.3772V14.1931C177.03 14.1224 177.022 14.0508 176.998 13.9839C176.974 13.917 176.934 13.8565 176.883 13.8072C176.832 13.7579 176.77 13.7211 176.702 13.6997C176.634 13.6783 176.562 13.6728 176.492 13.6837Z" fill="black"/>
<path id="Path 48" d="M198.279 16.9782C198.081 16.2581 197.691 15.6048 197.152 15.0873C196.577 14.5697 195.882 14.2028 195.131 14.0197C194.147 13.7778 193.136 13.6649 192.123 13.6837H184.947C183.938 13.6648 182.93 13.7778 181.95 14.0197C181.203 14.2053 180.512 14.5719 179.94 15.0873C179.405 15.6099 179.013 16.2609 178.801 16.9782C178.543 17.9024 178.423 18.8594 178.444 19.8187V23.8129C178.423 24.7737 178.544 25.7323 178.801 26.6582C179.011 27.381 179.403 28.0379 179.94 28.5659C180.512 29.0779 181.203 29.4392 181.95 29.6173C182.931 29.8548 183.938 29.9641 184.947 29.9425H192.123C193.135 29.9641 194.146 29.8548 195.131 29.6173C195.882 29.4416 196.577 29.0801 197.152 28.5659C197.693 28.0429 198.082 27.3839 198.279 26.6582C198.532 25.7315 198.651 24.7733 198.632 23.8129V19.8176C198.651 18.8591 198.533 17.9029 198.279 16.9782ZM195.076 23.5582C195.087 24.0701 195.036 24.5813 194.925 25.0811C194.846 25.4442 194.674 25.7804 194.426 26.0566C194.165 26.3101 193.838 26.4865 193.483 26.5666C192.991 26.6768 192.487 26.7277 191.982 26.7184H185.088C184.583 26.7274 184.08 26.6765 183.587 26.5666C183.234 26.4853 182.909 26.3089 182.649 26.0566C182.399 25.7818 182.227 25.445 182.151 25.0811C182.04 24.5813 181.989 24.0701 181.999 23.5582V20.0728C181.988 19.5611 182.039 19.05 182.151 18.5505C182.226 18.1862 182.398 17.8491 182.649 17.5749C182.908 17.3209 183.233 17.1444 183.587 17.0655C184.079 16.953 184.583 16.902 185.088 16.9137H191.982C192.487 16.9017 192.991 16.9527 193.483 17.0655C193.839 17.1431 194.166 17.3197 194.426 17.5749C194.675 17.8505 194.847 18.1871 194.925 18.5505C195.036 19.05 195.087 19.5611 195.076 20.0728V23.5582Z" fill="black"/>
</g>
<path id="Path 49" d="M155.049 16.9139C155.119 16.9236 155.19 16.917 155.257 16.8946C155.324 16.8723 155.384 16.8348 155.434 16.7851C155.484 16.7353 155.521 16.6747 155.544 16.608C155.566 16.5413 155.573 16.4703 155.563 16.4006V14.1943C155.573 14.1247 155.566 14.0539 155.543 13.9874C155.521 13.9209 155.483 13.8605 155.434 13.811C155.384 13.7616 155.323 13.7243 155.256 13.7022C155.19 13.6801 155.119 13.6738 155.049 13.6838H142.74C141.331 13.6838 140.294 14.0301 139.629 14.7292C139.066 15.3263 138.724 16.0966 138.656 16.9139H155.049Z" fill="black"/>
</g>
<g id="Group 12">
<path id="Path 50" d="M59.4988 40.2809H58.006V34.7484C58.0094 34.7169 58.0058 34.685 57.9953 34.6551C57.9848 34.6252 57.9677 34.5981 57.9453 34.5757C57.9229 34.5533 57.8957 34.5362 57.8658 34.5257C57.8359 34.5152 57.8041 34.5115 57.7726 34.515H56.6444C56.6129 34.5115 56.581 34.5152 56.5511 34.5257C56.5212 34.5362 56.494 34.5533 56.4716 34.5757C56.4492 34.5981 56.4322 34.6252 56.4216 34.6551C56.4111 34.685 56.4075 34.7169 56.411 34.7484V40.2809H51.8078C51.7782 40.2852 51.748 40.2825 51.7196 40.273C51.6912 40.2636 51.6655 40.2476 51.6443 40.2265C51.6232 40.2054 51.6072 40.1796 51.5978 40.1512C51.5883 40.1228 51.5856 40.0926 51.5899 40.063V34.7484C51.5899 34.5954 51.5194 34.515 51.3649 34.515H50.2367C50.205 34.5102 50.1725 34.513 50.142 34.523C50.1116 34.533 50.0838 34.5501 50.0611 34.5728C50.0384 34.5955 50.0214 34.6232 50.0113 34.6537C50.0013 34.6842 49.9985 34.7166 50.0033 34.7484V40.8768C49.993 40.9959 50.0069 41.1158 50.0442 41.2294C50.0816 41.3429 50.1415 41.4478 50.2205 41.5375C50.4295 41.7042 50.6956 41.7822 50.9616 41.7547H58.3057V43.4541C58.3019 43.4864 58.3057 43.5191 58.3167 43.5497C58.3276 43.5803 58.3455 43.608 58.3689 43.6305C58.3923 43.6531 58.4206 43.67 58.4516 43.6799C58.4825 43.6897 58.5154 43.6923 58.5475 43.6875H59.4981C59.6511 43.6875 59.723 43.6071 59.723 43.4541V40.5143C59.7237 40.362 59.6518 40.2809 59.4988 40.2809Z" fill="black"/>
<path id="Path 51" d="M67.9694 36.9792C67.9289 36.7806 67.8308 36.5984 67.6874 36.4553C67.5367 36.3075 67.3464 36.2068 67.1395 36.1654C66.8541 36.102 66.5623 36.0722 66.27 36.0766H63.2421C62.8466 36.0689 62.4516 36.1096 62.066 36.1979C61.7897 36.2579 61.5325 36.3851 61.3171 36.5681C61.1209 36.7419 60.9785 36.9682 60.9067 37.2203C60.8168 37.5317 60.7733 37.8546 60.7777 38.1786V39.6594C60.7732 39.9837 60.8167 40.3069 60.9067 40.6184C60.9787 40.8705 61.121 41.0967 61.3171 41.2707C61.5313 41.454 61.7893 41.5789 62.066 41.6331C62.4516 41.7211 62.8466 41.7616 63.2421 41.7537H67.6951C67.7209 41.7566 67.7469 41.7535 67.7713 41.7447C67.7956 41.7359 67.8177 41.7216 67.8356 41.7029C67.8535 41.6843 67.8669 41.6617 67.8747 41.637C67.8825 41.6123 67.8845 41.5861 67.8806 41.5605V40.7031C67.8844 40.6778 67.8822 40.652 67.8743 40.6278C67.8663 40.6035 67.8527 40.5815 67.8347 40.5635C67.8166 40.5454 67.7946 40.5319 67.7704 40.5239C67.7461 40.5159 67.7204 40.5138 67.6951 40.5176H63.3867C63.0698 40.5541 62.7503 40.4772 62.4848 40.3004C62.3979 40.2056 62.3322 40.0933 62.292 39.9711C62.2517 39.849 62.2379 39.7197 62.2514 39.5917V39.3499H67.4695C67.6276 39.359 67.7841 39.3137 67.913 39.2215C67.9679 39.1577 68.0091 39.0833 68.034 39.0028C68.0588 38.9224 68.0669 38.8377 68.0576 38.754V37.7795C68.062 37.5101 68.0324 37.2412 67.9694 36.9792ZM66.6085 38.2484C66.6085 38.3613 66.5521 38.4177 66.4315 38.4177H62.2521V38.1441C62.2378 38.0161 62.2512 37.8866 62.2915 37.7643C62.3318 37.642 62.398 37.5298 62.4855 37.4354C62.7518 37.2608 63.0712 37.1859 63.3874 37.2239H65.9809C66.1559 37.2025 66.3324 37.2486 66.4745 37.3529C66.5274 37.416 66.5669 37.4893 66.5904 37.5683C66.6139 37.6472 66.621 37.7302 66.6113 37.812L66.6085 38.2484Z" fill="black"/>
<path id="Path 52" d="M76.8298 36.0766H75.8151C75.6621 36.0766 75.5895 36.1577 75.5895 36.3185V38.2513H70.8707V36.3185C70.8707 36.1577 70.8002 36.0766 70.645 36.0766H69.6303C69.598 36.0729 69.5653 36.0766 69.5347 36.0876C69.5041 36.0986 69.4764 36.1164 69.4539 36.1398C69.4313 36.1632 69.4144 36.1915 69.4045 36.2225C69.3946 36.2535 69.392 36.2863 69.3969 36.3185V41.521C69.3935 41.5525 69.3971 41.5844 69.4076 41.6143C69.4181 41.6442 69.4352 41.6713 69.4576 41.6937C69.48 41.7161 69.5072 41.7332 69.5371 41.7437C69.5669 41.7542 69.5988 41.7579 69.6303 41.7544H70.645C70.6763 41.7583 70.708 41.7549 70.7377 41.7444C70.7674 41.7339 70.7942 41.7167 70.8161 41.694C70.838 41.6714 70.8543 41.644 70.8638 41.6139C70.8733 41.5839 70.8756 41.5521 70.8707 41.521V39.4676H75.5895V41.521C75.5845 41.5521 75.5869 41.5839 75.5964 41.6139C75.6058 41.644 75.6222 41.6714 75.644 41.694C75.6659 41.7167 75.6928 41.7339 75.7225 41.7444C75.7522 41.7549 75.7839 41.7583 75.8151 41.7544H76.8298C76.8613 41.7579 76.8932 41.7542 76.9231 41.7437C76.953 41.7332 76.9801 41.7161 77.0025 41.6937C77.0249 41.6713 77.042 41.6442 77.0525 41.6143C77.063 41.5844 77.0667 41.5525 77.0632 41.521V36.3185C77.0681 36.2863 77.0655 36.2535 77.0556 36.2225C77.0458 36.1915 77.0289 36.1632 77.0063 36.1398C76.9837 36.1164 76.9561 36.0986 76.9255 36.0876C76.8949 36.0766 76.8621 36.0729 76.8298 36.0766Z" fill="black"/>
<path id="Path 53" d="M85.994 36.0764H78.4172C78.3921 36.0734 78.3666 36.076 78.3427 36.0843C78.3188 36.0925 78.2971 36.1061 78.2792 36.1239C78.2614 36.1418 78.2478 36.1635 78.2395 36.1874C78.2313 36.2113 78.2286 36.2368 78.2317 36.2619V37.132C78.2286 37.1571 78.2313 37.1825 78.2395 37.2064C78.2477 37.2303 78.2613 37.252 78.2792 37.2698C78.2971 37.2876 78.3189 37.3011 78.3428 37.3093C78.3667 37.3174 78.3921 37.32 78.4172 37.3168H81.469V41.5208C81.4656 41.5523 81.4692 41.5842 81.4797 41.6141C81.4902 41.644 81.5073 41.6712 81.5297 41.6936C81.5521 41.716 81.5793 41.7331 81.6092 41.7436C81.6391 41.7541 81.671 41.7577 81.7025 41.7543H82.7171C82.7484 41.7581 82.7801 41.7547 82.8098 41.7442C82.8395 41.7338 82.8663 41.7165 82.8882 41.6939C82.9101 41.6712 82.9264 41.6438 82.9359 41.6138C82.9454 41.5838 82.9477 41.5519 82.9428 41.5208V37.3182H85.994C86.019 37.3213 86.0443 37.3186 86.0681 37.3104C86.0919 37.3022 86.1136 37.2887 86.1314 37.2709C86.1492 37.2531 86.1627 37.2315 86.1709 37.2076C86.1791 37.1838 86.1818 37.1584 86.1787 37.1334V36.2605C86.1817 36.2355 86.1789 36.2102 86.1707 36.1865C86.1624 36.1628 86.1489 36.1412 86.1311 36.1235C86.1133 36.1058 86.0917 36.0923 86.0679 36.0842C86.0442 36.076 86.0189 36.0734 85.994 36.0764Z" fill="black"/>
<path id="Path 54" d="M95.0116 37.2204C94.9398 36.9683 94.7974 36.7419 94.6012 36.5681C94.3827 36.3849 94.1227 36.2579 93.8439 36.1979C93.461 36.1105 93.0689 36.0698 92.6762 36.0766H89.7774C89.3846 36.0688 88.9924 36.1096 88.6096 36.1979C88.3316 36.2594 88.0722 36.3863 87.853 36.5681C87.6617 36.7447 87.5222 36.9703 87.4497 37.2204C87.3562 37.5309 87.3129 37.8544 87.3214 38.1787V43.8057C87.3214 43.9587 87.4017 44.0313 87.5625 44.0313H88.5694C88.6005 44.0363 88.6324 44.0339 88.6624 44.0245C88.6924 44.015 88.7198 43.9987 88.7425 43.9768C88.7651 43.9549 88.7824 43.9281 88.7928 43.8984C88.8033 43.8687 88.8067 43.8369 88.8028 43.8057V41.7523H92.6762C93.0689 41.7593 93.461 41.7189 93.8439 41.6317C94.1232 41.5776 94.3839 41.4528 94.6012 41.2693C94.7973 41.0954 94.9397 40.8691 95.0116 40.617C95.0985 40.305 95.1391 39.9819 95.1322 39.658V38.1772C95.1389 37.8541 95.0983 37.5317 95.0116 37.2204ZM93.6669 39.3704C93.6704 39.5542 93.6544 39.7378 93.619 39.9182C93.5879 40.0495 93.5241 40.1708 93.4335 40.2708C93.3385 40.3647 93.2182 40.4288 93.0873 40.4556C92.9047 40.4946 92.7184 40.5135 92.5316 40.512H88.8028V38.4501C88.8001 38.2691 88.8162 38.0884 88.8508 37.9107C88.8781 37.778 88.9424 37.6558 89.0362 37.5581C89.1311 37.4681 89.2477 37.4042 89.3747 37.3727C89.5539 37.3301 89.7378 37.3112 89.9219 37.3163H92.5309C92.7178 37.3108 92.9046 37.3298 93.0866 37.3727C93.215 37.4063 93.3336 37.4699 93.4328 37.5581C93.5236 37.658 93.5875 37.7793 93.6183 37.9107C93.6529 38.0884 93.6689 38.2691 93.6662 38.4501L93.6669 39.3704Z" fill="black"/>
<path id="Path 55" d="M109.363 41.5128L105.941 35.304C105.824 35.0525 105.644 34.836 105.417 34.6757C105.215 34.5654 104.988 34.51 104.757 34.515H104.145C103.941 34.5116 103.739 34.5674 103.566 34.6757C103.347 34.8397 103.172 35.0557 103.058 35.304L99.6676 41.5128C99.6377 41.5639 99.6291 41.6247 99.6436 41.682C99.6598 41.7307 99.7141 41.7526 99.8044 41.7526H101.149C101.197 41.7542 101.244 41.7423 101.286 41.7181C101.327 41.6938 101.361 41.6584 101.382 41.6158L102.1 40.276H106.956L107.689 41.6158C107.71 41.6606 107.744 41.6978 107.788 41.7223C107.831 41.7468 107.88 41.7573 107.93 41.7526H109.234C109.323 41.7526 109.375 41.7286 109.388 41.682C109.402 41.6246 109.393 41.5638 109.363 41.5128ZM102.752 39.0808L104.374 36.0529C104.385 36.0332 104.401 36.0168 104.421 36.0056C104.441 35.9943 104.463 35.9885 104.486 35.9887H104.551C104.573 35.9886 104.596 35.9944 104.616 36.0057C104.636 36.0169 104.652 36.0332 104.664 36.0529L106.306 39.0808H102.752Z" fill="black"/>
<path id="Path 56" d="M117.375 38.8256C117.547 38.721 117.687 38.5725 117.782 38.3955C117.877 38.2185 117.923 38.0193 117.915 37.8187V37.4245C117.93 37.2373 117.903 37.0491 117.836 36.8736C117.769 36.6981 117.664 36.5396 117.528 36.4098C117.136 36.1525 116.667 36.036 116.2 36.0791H110.837C110.635 36.0791 110.538 36.1842 110.538 36.3936V41.4509C110.532 41.4918 110.535 41.5337 110.548 41.5732C110.56 41.6127 110.582 41.6487 110.611 41.6784C110.64 41.7081 110.675 41.7306 110.715 41.7443C110.754 41.7579 110.795 41.7622 110.837 41.7569H116.377C116.631 41.7645 116.884 41.7292 117.126 41.6525C117.309 41.5967 117.478 41.5003 117.619 41.3705C117.741 41.2454 117.832 41.0938 117.885 40.9277C117.946 40.7402 117.975 40.5443 117.973 40.3473V39.8805C117.984 39.666 117.934 39.4528 117.828 39.2659C117.722 39.0791 117.565 38.9263 117.375 38.8256ZM112.012 37.3843C112.012 37.287 112.06 37.2391 112.149 37.2391H115.91C116.073 37.2232 116.235 37.2659 116.369 37.3596C116.416 37.407 116.451 37.464 116.473 37.5266C116.496 37.5893 116.504 37.656 116.497 37.7221V37.9477C116.503 38.0114 116.495 38.0755 116.472 38.1354C116.45 38.1953 116.415 38.2494 116.369 38.294C116.244 38.3868 116.089 38.4298 115.934 38.4145H112.009L112.012 37.3843ZM116.514 40.1344C116.518 40.1986 116.507 40.2629 116.484 40.3227C116.46 40.3825 116.424 40.4364 116.377 40.4806C116.247 40.5682 116.09 40.608 115.934 40.5934H112.149C112.13 40.5957 112.112 40.5937 112.094 40.5877C112.076 40.5816 112.06 40.5716 112.047 40.5584C112.034 40.5452 112.024 40.5292 112.018 40.5116C112.012 40.4939 112.01 40.4751 112.012 40.4566V39.3284H115.918C116.082 39.3117 116.246 39.3578 116.377 39.4574C116.424 39.5082 116.46 39.5679 116.484 39.6329C116.507 39.6979 116.517 39.767 116.514 39.8361V40.1344Z" fill="black"/>
<path id="Path 57" d="M126.808 36.0764H119.23C119.205 36.0734 119.179 36.076 119.155 36.0843C119.131 36.0925 119.11 36.1061 119.092 36.1239C119.074 36.1418 119.06 36.1635 119.052 36.1874C119.044 36.2113 119.041 36.2368 119.044 36.2619V37.132C119.041 37.1571 119.044 37.1825 119.052 37.2064C119.06 37.2303 119.074 37.252 119.092 37.2698C119.11 37.2876 119.131 37.3011 119.155 37.3093C119.179 37.3174 119.205 37.32 119.23 37.3168H122.282V41.5208C122.279 41.5523 122.282 41.5842 122.293 41.6141C122.303 41.644 122.321 41.6712 122.343 41.6936C122.365 41.716 122.392 41.7331 122.422 41.7436C122.452 41.7541 122.484 41.7577 122.516 41.7543H123.53C123.562 41.7581 123.593 41.7547 123.623 41.7442C123.653 41.7338 123.68 41.7165 123.701 41.6939C123.723 41.6712 123.74 41.6438 123.749 41.6138C123.759 41.5838 123.761 41.5519 123.756 41.5208V37.3182H126.808C126.833 37.3214 126.858 37.3188 126.882 37.3107C126.906 37.3025 126.928 37.289 126.946 37.2712C126.964 37.2534 126.977 37.2317 126.986 37.2078C126.994 37.184 126.996 37.1585 126.993 37.1334V36.2605C126.996 36.2355 126.993 36.2102 126.985 36.1865C126.977 36.1627 126.963 36.1412 126.945 36.1235C126.927 36.1058 126.906 36.0924 126.882 36.0842C126.858 36.0761 126.833 36.0734 126.808 36.0764Z" fill="black"/>
<path id="Path 58" d="M135.827 37.2203C135.755 36.9683 135.612 36.7421 135.416 36.5681C135.198 36.3851 134.938 36.258 134.659 36.1979C134.277 36.1101 133.885 36.0694 133.492 36.0766H130.566C130.171 36.0689 129.776 36.1096 129.391 36.1979C129.114 36.2576 128.857 36.3848 128.642 36.5681C128.445 36.7417 128.302 36.9681 128.231 37.2203C128.144 37.5322 128.103 37.855 128.11 38.1786V39.6594C128.103 39.9833 128.144 40.3064 128.231 40.6184C128.303 40.8706 128.445 41.097 128.642 41.2707C128.856 41.4543 129.114 41.5792 129.391 41.6331C129.776 41.7211 130.171 41.7616 130.566 41.7537H133.49C133.882 41.7611 134.274 41.7206 134.657 41.6331C134.936 41.5789 135.197 41.4541 135.414 41.2707C135.61 41.0966 135.753 40.8704 135.825 40.6184C135.912 40.3064 135.953 39.9833 135.946 39.6594V38.1786C135.953 37.8551 135.913 37.5323 135.827 37.2203ZM134.482 39.4063C134.486 39.5901 134.47 39.7738 134.434 39.9542C134.408 40.0853 134.343 40.2058 134.249 40.3003C134.154 40.3948 134.033 40.4592 133.902 40.4852C133.72 40.5284 133.533 40.5474 133.347 40.5416H130.713C130.529 40.5474 130.345 40.5285 130.166 40.4852C130.035 40.4588 129.914 40.3946 129.819 40.3004C129.726 40.2046 129.662 40.0847 129.634 39.9542C129.599 39.7738 129.582 39.5901 129.586 39.4063V38.424C129.583 38.2456 129.599 38.0674 129.634 37.8923C129.664 37.7607 129.728 37.6391 129.819 37.5398C129.914 37.4454 130.035 37.3809 130.166 37.3543C130.345 37.3152 130.529 37.2963 130.713 37.2979H133.347C133.533 37.2963 133.72 37.3152 133.902 37.3543C134.034 37.3791 134.155 37.4439 134.248 37.5398C134.343 37.6372 134.407 37.7595 134.434 37.8923C134.469 38.0673 134.485 38.2456 134.482 38.424V39.4063Z" fill="black"/>
<path id="Path 59" d="M144.819 36.0767H137.249C137.223 36.0727 137.197 36.0747 137.172 36.0825C137.148 36.0903 137.125 36.1037 137.107 36.1216C137.088 36.1396 137.074 36.1616 137.065 36.186C137.056 36.2103 137.053 36.2364 137.056 36.2621V37.1323C137.053 37.158 137.056 37.1841 137.065 37.2084C137.074 37.2327 137.088 37.2547 137.107 37.2726C137.125 37.2905 137.148 37.3038 137.173 37.3115C137.197 37.3192 137.223 37.3211 137.249 37.317H140.294V41.5211C140.29 41.5534 140.294 41.5861 140.305 41.6167C140.316 41.6473 140.334 41.675 140.357 41.6976C140.38 41.7201 140.409 41.737 140.44 41.7469C140.471 41.7568 140.504 41.7594 140.536 41.7545H141.542C141.573 41.7581 141.605 41.7545 141.635 41.7441C141.665 41.7336 141.693 41.7165 141.715 41.6941C141.738 41.6717 141.755 41.6445 141.765 41.6145C141.776 41.5846 141.779 41.5527 141.776 41.5211V37.3184H144.819C144.845 37.3224 144.87 37.3203 144.895 37.3125C144.919 37.3046 144.941 37.2911 144.959 37.2731C144.977 37.2551 144.991 37.2331 144.999 37.2089C145.007 37.1847 145.009 37.1589 145.005 37.1337V36.2607C145.008 36.2355 145.006 36.2098 144.998 36.1857C144.99 36.1616 144.976 36.1397 144.958 36.1218C144.94 36.1039 144.918 36.0905 144.894 36.0827C144.87 36.0748 144.844 36.0728 144.819 36.0767Z" fill="black"/>
<path id="Path 60" d="M154.076 36.1579C154.064 36.1308 154.043 36.1083 154.017 36.0937C153.991 36.0791 153.961 36.0732 153.931 36.0768H152.771C152.72 36.0729 152.668 36.0847 152.624 36.1106C152.579 36.1366 152.543 36.1754 152.521 36.2221L150.098 40.4417C150.076 40.4425 150.053 40.4386 150.033 40.4304C150.012 40.4221 149.993 40.4096 149.977 40.3937C149.928 40.3341 149.884 40.2693 149.848 40.2005L147.553 36.2221C147.531 36.1754 147.495 36.1366 147.451 36.1106C147.406 36.0847 147.355 36.0729 147.303 36.0768H146.119C146.089 36.0714 146.057 36.0764 146.029 36.0911C146.001 36.1058 145.979 36.1293 145.966 36.1579C145.955 36.1867 145.951 36.2176 145.954 36.2483C145.957 36.279 145.967 36.3086 145.983 36.3349L148.769 41.1503C148.839 41.2717 148.929 41.3806 149.034 41.4726C149.155 41.5496 149.294 41.5916 149.437 41.5939L148.873 42.5761C148.817 42.6611 148.738 42.7288 148.646 42.7714C148.553 42.814 148.451 42.8299 148.35 42.8173H147.738C147.713 42.8135 147.687 42.8156 147.662 42.8236C147.638 42.8316 147.616 42.8451 147.598 42.8632C147.58 42.8812 147.567 42.9032 147.559 42.9275C147.551 42.9517 147.548 42.9775 147.552 43.0027V43.8489C147.549 43.874 147.552 43.8996 147.56 43.9235C147.568 43.9475 147.582 43.9693 147.599 43.9872C147.617 44.0051 147.639 44.0187 147.663 44.0268C147.687 44.035 147.713 44.0376 147.738 44.0344H148.462C148.819 44.0499 149.175 43.9923 149.509 43.8651C149.757 43.7561 149.964 43.5696 150.097 43.3335L154.059 36.3356C154.077 36.3101 154.089 36.2802 154.092 36.249C154.094 36.2178 154.089 36.1864 154.076 36.1579Z" fill="black"/>
<path id="Path 61" d="M162.621 37.2204C162.542 36.9712 162.401 36.7465 162.21 36.5681C161.991 36.3864 161.731 36.2596 161.453 36.1979C161.07 36.1105 160.678 36.0698 160.285 36.0766H157.386C156.994 36.0688 156.601 36.1096 156.219 36.1979C155.941 36.2597 155.681 36.3866 155.461 36.5681C155.27 36.7464 155.129 36.9711 155.051 37.2204C154.964 37.5322 154.924 37.8551 154.93 38.1787V43.8057C154.93 43.9587 155.011 44.0313 155.172 44.0313H156.179C156.209 44.0362 156.241 44.0337 156.27 44.024C156.3 44.0144 156.327 43.9979 156.349 43.9759C156.371 43.9539 156.387 43.927 156.397 43.8974C156.406 43.8679 156.409 43.8364 156.404 43.8057V41.7523H160.282C160.675 41.7594 161.067 41.7189 161.45 41.6317C161.729 41.5759 161.989 41.4513 162.208 41.2693C162.398 41.0907 162.539 40.8661 162.618 40.617C162.705 40.3051 162.746 39.9819 162.739 39.658V38.1772C162.747 37.8542 162.707 37.5318 162.621 37.2204ZM161.276 39.3704C161.282 39.5547 161.263 39.7389 161.22 39.9182C161.195 40.0502 161.134 40.1725 161.043 40.2708C160.948 40.3647 160.827 40.4288 160.696 40.4556C160.514 40.4946 160.327 40.5135 160.141 40.512H156.403V38.4501C156.403 38.2688 156.422 38.088 156.46 37.9107C156.487 37.7797 156.548 37.6581 156.637 37.5581C156.736 37.4696 156.855 37.406 156.983 37.3727C157.162 37.3301 157.346 37.3112 157.53 37.3163H160.139C160.326 37.3108 160.513 37.3298 160.695 37.3727C160.823 37.4063 160.942 37.4699 161.041 37.5581C161.133 37.6564 161.194 37.7787 161.218 37.9107C161.26 38.0873 161.279 38.2686 161.275 38.4501L161.276 39.3704Z" fill="black"/>
<path id="Path 62" d="M171.797 37.6562C171.725 37.406 171.585 37.1804 171.394 37.0039C171.172 36.8208 170.91 36.6938 170.629 36.6337C170.246 36.5451 169.854 36.5044 169.461 36.5125H165.587V36.1909C165.583 36.044 165.602 35.8974 165.643 35.7565C165.672 35.6416 165.733 35.5377 165.821 35.4583C165.922 35.3776 166.041 35.3225 166.167 35.2975C166.347 35.2549 166.531 35.236 166.715 35.2411H170.121C170.202 35.2425 170.283 35.2397 170.363 35.2326C170.559 35.2263 170.753 35.1994 170.943 35.1522C171.141 35.1015 171.322 34.9987 171.467 34.8547C171.539 34.7798 171.6 34.6947 171.647 34.6022C171.671 34.5527 171.692 34.5016 171.708 34.4492C171.727 34.393 171.742 34.3355 171.753 34.2772C171.762 34.2415 171.763 34.2044 171.758 34.1681C171.752 34.1318 171.74 34.097 171.72 34.0656C171.7 34.042 171.675 34.0239 171.646 34.0127C171.617 34.0015 171.585 33.9976 171.555 34.0014H166.57C166.175 33.9936 165.78 34.0341 165.394 34.122C165.118 34.1826 164.861 34.31 164.645 34.4929C164.449 34.6666 164.306 34.893 164.235 35.1452C164.148 35.457 164.107 35.7799 164.114 36.1035V39.6623C164.107 39.9862 164.148 40.3093 164.235 40.6213C164.307 40.8734 164.449 41.0996 164.645 41.2736C164.859 41.4569 165.117 41.5818 165.394 41.636C165.78 41.724 166.175 41.7645 166.57 41.7566H169.461C169.854 41.7645 170.246 41.724 170.629 41.636C170.91 41.582 171.174 41.4573 171.394 41.2736C171.585 41.097 171.724 40.8714 171.797 40.6213C171.89 40.3106 171.934 39.9868 171.926 39.6623V38.6081C171.934 38.286 171.89 37.9646 171.797 37.6562ZM169.88 40.4584C169.695 40.4979 169.505 40.5168 169.316 40.5148H166.715C166.531 40.5161 166.347 40.4971 166.167 40.4584C166.037 40.426 165.917 40.3593 165.821 40.2652C165.728 40.1707 165.666 40.0499 165.643 39.919C165.601 39.7397 165.582 39.5554 165.587 39.3711V37.5836H169.316C169.506 37.5797 169.696 37.6013 169.88 37.6477C170.011 37.6747 170.131 37.7391 170.226 37.8332C170.316 37.9297 170.378 38.0497 170.403 38.1794C170.441 38.3595 170.46 38.5432 170.46 38.7273V39.3711C170.461 39.5553 170.442 39.739 170.403 39.919C170.378 40.0486 170.316 40.1685 170.226 40.2652C170.134 40.3548 170.021 40.4187 169.896 40.4507C169.888 40.4584 169.888 40.4584 169.88 40.4584Z" fill="black"/>
<path id="Path 63" d="M180.95 37.2204C180.878 36.9703 180.739 36.7447 180.547 36.5682C180.326 36.385 180.063 36.258 179.782 36.198C179.4 36.1097 179.007 36.069 178.615 36.0767H175.691C175.298 36.0685 174.906 36.1093 174.523 36.198C174.245 36.2581 173.985 36.3852 173.767 36.5682C173.571 36.7422 173.428 36.9684 173.356 37.2204C173.269 37.5323 173.228 37.8551 173.235 38.1787V39.6595C173.228 39.9834 173.269 40.3065 173.356 40.6185C173.428 40.8705 173.571 41.0967 173.767 41.2708C173.984 41.4542 174.244 41.579 174.523 41.6332C174.906 41.7217 175.298 41.7622 175.691 41.7538H178.615C179.007 41.7617 179.4 41.7212 179.782 41.6332C180.064 41.5792 180.327 41.4545 180.547 41.2708C180.739 41.0942 180.878 40.8686 180.95 40.6185C181.044 40.3078 181.088 39.984 181.079 39.6595V38.1787C181.088 37.8545 181.044 37.5309 180.95 37.2204ZM179.61 39.4064C179.612 39.5906 179.593 39.7743 179.554 39.9543C179.529 40.084 179.467 40.204 179.377 40.3005C179.282 40.3945 179.162 40.4587 179.031 40.4853C178.846 40.5289 178.656 40.5479 178.467 40.5417H175.838C175.653 40.5471 175.469 40.5281 175.29 40.4853C175.159 40.4586 175.039 40.3944 174.944 40.3005C174.851 40.2058 174.789 40.085 174.767 39.9543C174.724 39.775 174.705 39.5907 174.71 39.4064V38.4241C174.706 38.2452 174.725 38.0664 174.767 37.8924C174.791 37.7605 174.852 37.6382 174.944 37.5399C175.039 37.4458 175.159 37.3814 175.29 37.3544C175.47 37.3158 175.654 37.2969 175.838 37.298H178.471C178.66 37.296 178.85 37.315 179.035 37.3544C179.166 37.3812 179.286 37.4456 179.381 37.5399C179.47 37.6399 179.531 37.7615 179.558 37.8924C179.596 38.0671 179.615 38.2454 179.615 38.4241L179.61 39.4064Z" fill="black"/>
<path id="Path 64" d="M189.941 36.0767H182.37C182.345 36.073 182.319 36.0752 182.295 36.0832C182.271 36.0913 182.249 36.1048 182.231 36.1229C182.213 36.1409 182.2 36.1629 182.192 36.1871C182.184 36.2112 182.182 36.2369 182.185 36.2621V37.1323C182.182 37.1574 182.184 37.1831 182.192 37.2073C182.2 37.2314 182.213 37.2534 182.231 37.2714C182.249 37.2893 182.271 37.3028 182.295 37.3108C182.319 37.3187 182.345 37.3208 182.37 37.317H185.414V41.5211C185.411 41.5534 185.414 41.5861 185.425 41.6167C185.436 41.6473 185.454 41.675 185.478 41.6975C185.501 41.7201 185.529 41.737 185.56 41.7469C185.591 41.7568 185.624 41.7594 185.656 41.7545H186.671C186.702 41.7578 186.733 41.7539 186.763 41.7433C186.792 41.7326 186.819 41.7153 186.841 41.6928C186.862 41.6703 186.879 41.6432 186.888 41.6134C186.898 41.5836 186.901 41.5521 186.897 41.5211V37.3184H189.941C189.966 37.3225 189.992 37.3206 190.017 37.3129C190.042 37.3052 190.064 37.2919 190.083 37.274C190.102 37.2561 190.116 37.2341 190.125 37.2098C190.134 37.1854 190.137 37.1594 190.134 37.1337V36.2607C190.136 36.2351 190.133 36.2092 190.124 36.185C190.115 36.1608 190.101 36.139 190.082 36.1212C190.064 36.1034 190.041 36.0902 190.017 36.0825C189.992 36.0747 189.966 36.0727 189.941 36.0767Z" fill="black"/>
<path id="Path 65" d="M198.759 36.3027C198.664 36.2199 198.552 36.1573 198.432 36.1185C198.311 36.0797 198.184 36.0656 198.058 36.0771H197.479C197.33 36.0754 197.182 36.0891 197.036 36.118C196.924 36.1371 196.816 36.1722 196.714 36.2224C196.623 36.274 196.54 36.3362 196.464 36.4078C196.384 36.4882 196.303 36.5771 196.206 36.6899L193.114 40.3143C193.1 40.3374 193.079 40.3561 193.055 40.3685C193.031 40.3809 193.004 40.3866 192.977 40.3848H192.881C192.824 40.3848 192.8 40.3531 192.8 40.2805V36.3183C192.8 36.1575 192.73 36.0764 192.575 36.0764H191.567C191.535 36.0727 191.502 36.0764 191.471 36.0874C191.441 36.0984 191.413 36.1163 191.39 36.1397C191.368 36.163 191.351 36.1913 191.341 36.2223C191.331 36.2533 191.329 36.2861 191.334 36.3183V40.6753C191.314 40.8259 191.325 40.9788 191.365 41.1253C191.405 41.2717 191.474 41.4088 191.567 41.5286C191.765 41.6926 192.019 41.7735 192.276 41.7542H192.831C192.979 41.754 193.127 41.7431 193.274 41.7218C193.383 41.7017 193.489 41.6665 193.589 41.6174C193.679 41.5673 193.761 41.5019 193.83 41.4242C193.911 41.3431 193.991 41.2472 194.088 41.1422L197.205 37.51C197.219 37.4892 197.238 37.472 197.261 37.4598C197.283 37.4475 197.308 37.4406 197.333 37.4394H197.429C197.486 37.4394 197.511 37.4796 197.511 37.5438V41.5222C197.506 41.5532 197.509 41.5848 197.519 41.6146C197.528 41.6443 197.545 41.6715 197.566 41.694C197.588 41.7165 197.615 41.7337 197.644 41.7444C197.674 41.7551 197.705 41.7589 197.736 41.7556H198.751C198.783 41.7604 198.816 41.7577 198.847 41.7478C198.878 41.7378 198.906 41.7209 198.929 41.6984C198.952 41.6758 198.97 41.6482 198.981 41.6177C198.992 41.5871 198.996 41.5545 198.992 41.5222V37.1651C199.026 36.8586 198.943 36.5507 198.759 36.3027Z" fill="black"/>
</g>
</g>
</g>
<defs>
<clipPath id="clip0_1601_4530">
<rect width="200" height="44.6219" fill="white"/>
</clipPath>
</defs>
</svg>
